<svg version="1.1" xmlns="http://www.w3.org/2000/svg" xmlns:xlink="http://www.w3.org/1999/xlink" width="300" height="280" viewBox="0 0 300 280"><defs/><g/><g transform="scale(1,1) scale(1,1)"><g transform="translate(0,20)"><g><path fill="rgb(206,239,228)" stroke="none" paint-order="stroke fill markers" d=" M 25 170 C 25 87.15728753 80.964406275 20 150 20 C 219.035593725 20 275 87.15728753 275 170 C 275 252.84271246999998 219.035593725 320 150 320 C 80.964406275 320 25 252.84271246999998 25 170 Z" fill-opacity="1"/><path fill="rgb(206,239,228)" stroke="none" paint-order="stroke fill markers" d=" M 25 170 L 275 170 L 275 370 L 25 370 L 25 170 Z" fill-opacity="1"/><path fill="none" stroke="rgb(82,77,91)" paint-order="fill stroke markers" d=" M 167.5 157 C 167.5 163.90355937288493 159.66498312203888 169.5 150 169.5 C 140.33501687796112 169.5 132.5 163.90355937288493 132.5 157" stroke-opacity="1" stroke-linecap="round" stroke-miterlimit="10" stroke-width="5"/></g><path fill="none" stroke="rgb(82,77,91)" paint-order="fill stroke markers" d=" M 50 140 C 50 133.0964406275 65.670033757 127.5 85 127.5 C 104.329966243 127.5 120 133.0964406275 120 140 C 120 146.9035593725 104.329966243 152.5 85 152.5 C 65.670033757 152.5 50 146.9035593725 50 140 Z" stroke-opacity="1" stroke-linecap="round" stroke-miterlimit="10" stroke-width="5"/><path fill="none" stroke="rgb(82,77,91)" paint-order="fill stroke markers" d=" M 180 140 C 180 133.0964406275 195.670033757 127.5 215 127.5 C 234.329966243 127.5 250 133.0964406275 250 140 C 250 146.9035593725 234.329966243 152.5 215 152.5 C 195.670033757 152.5 180 146.9035593725 180 140 Z" stroke-opacity="1" stroke-linecap="round" stroke-miterlimit="10" stroke-width="5"/><path fill="rgb(82,77,91)" stroke="rgb(82,77,91)" paint-order="fill stroke markers" d=" M 72.5 140 C 72.5 133.0964406275 78.0964406275 127.5 85 127.5 C 91.9035593725 127.5 97.5 133.0964406275 97.5 140 C 97.5 146.9035593725 91.9035593725 152.5 85 152.5 C 78.0964406275 152.5 72.5 146.9035593725 72.5 140 Z" fill-opacity="1" stroke-opacity="1" stroke-linecap="round" stroke-miterlimit="10" stroke-width="5"/><path fill="rgb(82,77,91)" stroke="rgb(82,77,91)" paint-order="fill stroke markers" d=" M 202.5 140 C 202.5 133.0964406275 208.0964406275 127.5 215 127.5 C 221.9035593725 127.5 227.5 133.0964406275 227.5 140 C 227.5 146.9035593725 221.9035593725 152.5 215 152.5 C 208.0964406275 152.5 202.5 146.9035593725 202.5 140 Z" fill-opacity="1" stroke-opacity="1" stroke-linecap="round" stroke-miterlimit="10" stroke-width="5"/><g><path fill="none" stroke="rgb(82,77,91)" paint-order="fill stroke markers" d=" M 85 170 L 215 170" stroke-opacity="1" stroke-linecap="round" stroke-miterlimit="10" stroke-width="5"/></g></g></g></svg>